<svg width="64" height="64" viewBox="0 0 64 64" fill="none" xmlns="http://www.w3.org/2000/svg">
  <path d="M52 12H12C10.9 12 10 12.9 10 14V50C10 51.1 10.9 52 12 52H52C53.1 52 54 51.1 54 50V14C54 12.9 53.1 12 52 12Z" fill="#E6E6FF"/>
  <path d="M26 32C28.7614 32 31 29.7614 31 27C31 24.2386 28.7614 22 26 22C23.2386 22 21 24.2386 21 27C21 29.7614 23.2386 32 26 32Z" fill="#B4C6FC"/>
  <path d="M32 42H20C20 38.7 22.7 36 26 36C29.3 36 32 38.7 32 42Z" fill="#B4C6FC"/>
  <path d="M38 28H46" stroke="#9E86FF" stroke-width="2" stroke-linecap="round"/>
  <path d="M38 36H46" stroke="#9E86FF" stroke-width="2" stroke-linecap="round"/>
  <path d="M38 32H42" stroke="#9E86FF" stroke-width="2" stroke-linecap="round"/>
  <path d="M52 12H12C10.9 12 10 12.9 10 14V50C10 51.1 10.9 52 12 52H52C53.1 52 54 51.1 54 50V14C54 12.9 53.1 12 52 12Z" stroke="#7868E6" stroke-width="2" stroke-linecap="round" stroke-linejoin="round"/>
</svg>
