<svg width="64" height="64" viewBox="0 0 64 64" fill="none" xmlns="http://www.w3.org/2000/svg">
  <path d="M51 15H13C11.3 15 10 16.3 10 18V46C10 47.7 11.3 49 13 49H51C52.7 49 54 47.7 54 46V18C54 16.3 52.7 15 51 15Z" fill="#DBEAFE"/>
  <circle cx="20" cy="25" r="5" fill="#93C5FD"/>
  <circle cx="44" cy="25" r="5" fill="#93C5FD"/>
  <path d="M20 35H44" stroke="#3B82F6" stroke-width="2" stroke-linecap="round"/>
  <path d="M25 40H39" stroke="#3B82F6" stroke-width="2" stroke-linecap="round"/>
  <path d="M51 15H13C11.3 15 10 16.3 10 18V46C10 47.7 11.3 49 13 49H51C52.7 49 54 47.7 54 46V18C54 16.3 52.7 15 51 15Z" stroke="#3B82F6" stroke-width="2" stroke-linecap="round" stroke-linejoin="round"/>
</svg>
