<svg width="64" height="64" viewBox="0 0 64 64" fill="none" xmlns="http://www.w3.org/2000/svg">
  <path d="M32 56C45.2548 56 56 45.2548 56 32C56 18.7452 45.2548 8 32 8C18.7452 8 8 18.7452 8 32C8 45.2548 18.7452 56 32 56Z" fill="#FBE9F1"/>
  <path d="M32 36C37.5228 36 42 31.5228 42 26C42 20.4772 37.5228 16 32 16C26.4772 16 22 20.4772 22 26C22 31.5228 26.4772 36 32 36Z" fill="#F9A8D4"/>
  <path d="M32 36C44 36 48 44 48 44H16C16 44 20 36 32 36Z" fill="#F9A8D4"/>
  <path d="M32 56C45.2548 56 56 45.2548 56 32C56 18.7452 45.2548 8 32 8C18.7452 8 8 18.7452 8 32C8 45.2548 18.7452 56 32 56Z" stroke="#EC4899" stroke-width="2" stroke-linecap="round" stroke-linejoin="round"/>
</svg>
