<svg width="64" height="64" viewBox="0 0 64 64" fill="none" xmlns="http://www.w3.org/2000/svg">
  <path d="M32 8C18.7 8 8 18.7 8 32C8 45.3 18.7 56 32 56C45.3 56 56 45.3 56 32C56 18.7 45.3 8 32 8Z" fill="#FFC2D1"/>
  <path d="M42 28C44.2091 28 46 26.2091 46 24C46 21.7909 44.2091 20 42 20C39.7909 20 38 21.7909 38 24C38 26.2091 39.7909 28 42 28Z" fill="#FF8FAB"/>
  <path d="M22 28C24.2091 28 26 26.2091 26 24C26 21.7909 24.2091 20 22 20C19.7909 20 18 21.7909 18 24C18 26.2091 19.7909 28 22 28Z" fill="#FF8FAB"/>
  <path d="M38 36H26C25.4 36 25 36.4 25 37C25 40.9 28.1 44 32 44C35.9 44 39 40.9 39 37C39 36.4 38.6 36 38 36Z" fill="#FF8FAB"/>
  <path d="M32 4C16.5 4 4 16.5 4 32C4 47.5 16.5 60 32 60C47.5 60 60 47.5 60 32C60 16.5 47.5 4 32 4ZM32 56C18.7 56 8 45.3 8 32C8 18.7 18.7 8 32 8C45.3 8 56 18.7 56 32C56 45.3 45.3 56 32 56Z" fill="#FF4778"/>
</svg>
